# xmcd
#
# Track frame offsets:
#	150
#	14693
#	25462
#	36965
#
# Disc length: 648 seconds
#
# Revision: 0
# Processed by: cddbd v1.5.2PL0 Copyright (c) Steve Scherf et al.
# Submitted via: audiograbber 1.83.01
#
DISCID=2f028604
DTITLE=William Smulders - Whiskey Song
DYEAR=2009
DGENRE=Pop
TTITLE0=William Smulders - 1. Wiskey Song
TTITLE1=William Smulders - 2. Let's have a party
TTITLE2=William Smulders - 3. Funnel of love
TTITLE3=William Smulders - 4. In my way
EXTD=
EXTT0=
EXTT1=
EXTT2=
EXTT3=
PLAYORDER=
